<svg id="Layer_1" data-name="Layer 1" xmlns="http://www.w3.org/2000/svg" viewBox="0 0 1000 500"><defs><style>.cls-1{fill:#35a46c;}</style></defs><path class="cls-1" d="M293.74,238.61l-22.2,55.1h-19l26.83-66.57h6.61a8.2,8.2,0,0,1,6.95,3.7A8.11,8.11,0,0,1,293.74,238.61Zm56.52,55.1h-19l-6.11-15.18H280.29l3.72-9.21,0-.07a13.36,13.36,0,0,1,12.58-8.44H337Zm-46.85-69h-23.1l7.42-18.4H315l21,52.07H328.5a16.79,16.79,0,0,1-15.83-10.69Z"/><path class="cls-1" d="M375,224v52h49.53v8.86a8.89,8.89,0,0,1-8.87,8.86H371.2a14,14,0,0,1-14-14V224Zm52,0h17.72v69.7H426.94Z"/><path class="cls-1" d="M474.43,224v52h59.4v17.72H470.67a14,14,0,0,1-14-14V206.29h17.72V224Zm55.74,0h3.66v17.73h-57v-8.87a8.89,8.89,0,0,1,8.86-8.86Z"/><path class="cls-1" d="M631.58,273.54h-8.86a8.89,8.89,0,0,1-8.87-8.86V241.74h-69.7V238a14,14,0,0,1,14-14h59.51a14,14,0,0,1,14,14Zm-87.43-29.35H553a8.89,8.89,0,0,1,8.87,8.86V276h69.7v3.76a14,14,0,0,1-14,14H558.11a14,14,0,0,1-14-14Z"/><path class="cls-1" d="M641.8,241.74V224h76.89v17.73ZM718.69,276v17.72H641.8V276Zm-37.15-7.58a29.27,29.27,0,0,1-16.47,4.81H641.81l22.31-14.36L679,249.32a29.23,29.23,0,0,1,16.48-4.81h23.26l-22.31,14.35Z"/><path class="cls-1" d="M816.11,255.35a14,14,0,0,1-13.87,12.37H757.81a8.88,8.88,0,0,1-8.86-8.86V250h49.53v-8.26h-52v26a7.69,7.69,0,0,1-7.44,5.78H728.77V238a14,14,0,0,1,14-14h59.5a14,14,0,0,1,14,14v17.38ZM816.2,276v17.72H742.73a14,14,0,0,1-14-14V276Z"/><path class="cls-1" d="M845.3,293.71H827.57V224H845.3Zm69.7,0H897.27v-52H847.75v-8.87a8.88,8.88,0,0,1,8.86-8.86H901a14,14,0,0,1,14,14Z"/><path class="cls-1" d="M204.43,276h36.2l35.22-87.43H134.51L85,311.44H226.34l7.15-17.73H211.57Zm18-2.45h-19l14.8-36.73a16.52,16.52,0,0,1,15.32-10.35h7.88Zm27.1-67.25L242.43,224h-59l-7.14-17.72Zm-103.17,0h27.3l21,52.07h-7.51a16.8,16.8,0,0,1-15.83-10.69l-9.26-23H139Zm-35.22,87.42L138,227.14h6.61a8.2,8.2,0,0,1,6.95,3.7,8.11,8.11,0,0,1,.85,7.77l-22.2,55.1Zm78.71,0-6.11-15.18H139l3.71-9.21,0-.07a13.36,13.36,0,0,1,12.58-8.44h40.38l13.26,32.9Z"/></svg>