<svg id="Layer_1" data-name="Layer 1" xmlns="http://www.w3.org/2000/svg" viewBox="0 0 1000 800"><defs><style>.cls-1{fill:#fff;}</style></defs><path class="cls-1" d="M613.17,522.55H783.88L950,110.29H283.47L50,689.71H716.53l33.68-83.58H646.85ZM698.28,511H608.52l69.79-173.21A77.92,77.92,0,0,1,750.58,289h37.15ZM826.06,193.87l-33.67,83.58h-278l-33.68-83.58Zm-486.5,0H468.28l98.94,245.54H531.8c-33.49,0-62.13-19.33-74.64-50.4L413.5,280.66H304.58ZM173.44,606.14,299.93,292.22H331.1a39.56,39.56,0,0,1,36.8,54.06L263.2,606.14Zm371.2,0L515.8,534.55H304.49L322,491.1c.05-.11.09-.23.14-.35C332.19,466.2,354.92,451,381.46,451H571.88L634.4,606.14Z"/></svg>